<svg display='none' xmlns="http://www.w3.org/2000/svg">
    <symbol  viewBox="0 0 55 54.9795" id='youtube-icon'>
        <path
            d="M17.1125 6.58398C23.5913 5.52148 31.4087 5.52148 37.8875 6.58398C43.7739 7.5498 48.3352 12.3311 49.2078 17.4814C50.2639 23.7168 50.2639 31.2627 49.2078 37.498C48.3352 42.6484 43.7739 47.4307 37.8877 48.3955C31.4087 49.458 23.5913 49.458 17.1125 48.3955C11.2263 47.4307 6.66504 42.6484 5.79224 37.498C4.73584 31.2627 4.73584 23.7168 5.79224 17.4824C6.66479 12.3311 11.2261 7.5498 17.1125 6.58398ZM38.5889 0.853516C31.645 -0.28418 23.3552 -0.28418 16.4111 0.853516C8.87476 2.08984 2.25049 8.31348 0.885742 16.3682C-0.295166 23.3389 -0.29541 31.6406 0.885742 38.6113C2.25049 46.667 8.87451 52.8896 16.4111 54.126C23.3552 55.2646 31.645 55.2646 38.5889 54.126C46.1255 52.8896 52.7498 46.667 54.1145 38.6113C55.2952 31.6406 55.2952 23.3389 54.1145 16.3682C52.7498 8.31348 46.1255 2.08984 38.5889 0.853516ZM23.8867 13.5078C23.1194 12.916 22.1333 12.8604 21.3203 13.3643C20.5076 13.8672 20 14.8477 20 15.915L20 39.0645C20 40.1318 20.5076 41.1123 21.3203 41.6162C22.1333 42.1191 23.1194 42.0645 23.8867 41.4727L38.8867 29.8975C39.5823 29.3613 40 28.458 40 27.4902C40 26.5225 39.5823 25.6191 38.8867 25.082L23.8867 13.5078ZM32.9929 27.4902L25 33.6582L25 21.3223L32.9929 27.4902Z"
            fill-rule="evenodd" />
    </symbol>
    <symbol viewBox="0 0 65 64.9766" id='link-icon'>
        <path
            d="M13 0C5.82031 0 0 5.81836 0 12.9951L0 51.9814C0 59.1582 5.82031 64.9766 13 64.9766L52 64.9766C59.1796 64.9766 65 59.1582 65 51.9814L65 12.9951C65 5.81836 59.1796 0 52 0L13 0ZM6.5 12.9951C6.5 9.40625 9.41016 6.49805 13 6.49805L52 6.49805C55.59 6.49805 58.5 9.40625 58.5 12.9951L58.5 51.9814C58.5 55.5693 55.59 58.4785 52 58.4785L13 58.4785C9.41016 58.4785 6.5 55.5693 6.5 51.9814L6.5 12.9951ZM22.75 29.2393C22.75 27.4453 21.2949 25.9902 19.5 25.9902C17.7051 25.9902 16.25 27.4453 16.25 29.2393L16.25 48.7324C16.25 50.5264 17.7051 51.9814 19.5 51.9814C21.2949 51.9814 22.75 50.5264 22.75 48.7324L22.75 29.2393ZM24.375 17.8682C24.375 20.5596 22.1924 22.7422 19.5 22.7422C16.8076 22.7422 14.625 20.5596 14.625 17.8682C14.625 15.1768 16.8076 12.9951 19.5 12.9951C22.1924 12.9951 24.375 15.1768 24.375 17.8682ZM32.5 25.9902C33.6034 25.9902 34.5784 26.54 35.166 27.3809C36.8319 26.4785 38.6866 25.9902 40.625 25.9902C47.6431 25.9902 52 32.2471 52 37.5938L52 37.6182L52 37.6426L52 37.667L52 37.6914L52 37.7168L52 37.7412L52 37.7666L52 37.791L52 37.8164L52 37.8408L52 37.8662L52 37.8916L52 37.917L52 37.9424L52 37.9678L52 37.9932L52 38.0186L52 38.0439L52 38.0693L52 38.0947L52 38.1211L52 38.1465L52 38.1719L52 38.1982L52 38.2236L52 38.25L52 38.2764L52 38.3027L52 38.3281L52 38.3545L52 38.3809L52 38.4072L52 38.4336L52 38.46L52 38.4863L52 38.5127L52 38.5391L52 38.5654L52 38.5918L52 38.6191L52 38.6455L52 38.6719L52 38.6992L52 38.7256L52 38.7529L52 38.7793L52 38.8066L52 38.834L52 38.8604L52 38.8877L52 38.915L52 38.9424L52 38.9697L52 38.9961L52 39.0234L52 39.0508L52 39.0791L52 39.1064L52 39.1338L52 39.1611L52 39.1885L52 39.2158L52 39.2441L52 39.2715L52 39.2988L52 39.3262L52 39.3545L52 39.3818L52 39.4102L52 39.4385L52 39.4658L52 39.4932L52 39.5215L52 39.5498L52 39.5781L52 39.6055L52 39.6338L52 39.6621L52 39.6904L52 39.7178L52 39.7461L52 39.7744L52 39.8027L52 39.8311L52 39.8594L52 39.8877L52 39.916L52 39.9443L52 39.9727L52 40.001L52 40.0303L52 40.0586L52 40.0869L52 40.1152L52 40.1436L52 40.1729L52 40.2012L52 40.2295L52 40.2588L52 40.2871L52 40.3154L52 40.3447L52 40.373L52 40.4023L52 40.4307L52 40.46L52 40.4883L52 40.5166L52 40.5459L52 40.5752L52 40.6035L52 40.6318L52 40.6611L52 40.6904L52 40.7188L52 40.748L52 40.7773L52 40.8057L52 40.835L52 40.8643L52 40.8926L52 40.9219L52 40.9512L52 40.9795L52 41.0088L52 41.0381L52 41.0674L52 41.0967L52 41.125L52 41.1543L52 41.1836L52 41.2129L52 41.2412L52 41.2705L52 41.2998L52 41.3291L52 41.3584L52 41.3867L52 41.416L52 41.4453L52 41.4746L52 41.5039L52 41.5322L52 41.5615L52 41.5908L52 41.6201L52 41.6494L52 41.6787L52 41.708L52 41.7363L52 41.7656L52 41.7949L52 41.8242L52 41.8535L52 41.8828L52 41.9111L52 41.9404L52 41.9697L52 41.999L52 42.0273L52 42.0566L52 42.0859L52 42.1152L52 42.1445L52 42.1729L52 42.2021L52 42.2314L52 42.2607L52 42.2891L52 42.3184L52 42.3477L52 42.376L52 42.4053L52 42.4346L52 42.4629L52 42.4922L52 42.5215L52 42.5498L52 42.5791L52 42.6084L52 42.6367L52 42.666L52 42.6943L52 42.7236L52 42.752L52 42.7812L52 42.8096L52 42.8389L52 42.8672L52 42.8965L52 42.9248L52 42.9531L52 42.9824L52 43.0107L52 43.0391L52 43.0684L52 43.0967L52 43.125L52 43.1533L52 43.1826L52 43.2109L52 43.2393L52 43.2676L52 43.2959L52 43.3242L52 43.3525L52 43.3809L52 43.4092L52 43.4375L52 43.4658L52 43.4941L52 43.5225L52 43.5508L52 43.5791L52 43.6074L52 43.6348L52 43.6631L52 43.6914L52 43.7197L52 43.7471L52 43.7754L52 43.8027L52 43.8311L52 43.8584L52 43.8867L52 43.9141L52 43.9424L52 43.9697L52 43.9971L52 44.0254L52 44.0527L52 44.0801L52 44.1074L52 44.1348L52 44.1621L52 44.1904L52 44.2178L52 44.2451L52 44.2725L52 44.2988L52 44.3262L52 44.3535L52 44.3809L52 44.4082L52 44.4346L52 44.4619L52 44.4883L52 44.5156L52 44.543L52 44.5693L52 44.5967L52 44.623L52 44.6494L52 44.6758L52 44.7031L52 44.7295L52 44.7559L52 44.7822L52 44.8086L52 44.835L52 44.8613L52 44.8877L52 44.9141L52 44.9395L52 44.9658L52 44.9922L52 45.0176L52 45.0439L52 45.0703L52 45.0957L52 45.1211L52 45.1475L52 45.1729L52 45.1982L52 45.2236L52 45.25L52 45.2744L52 45.2998L52 45.3252L52 45.3506L52 45.376L52 45.4014L52 45.4268L52 45.4512L52 45.4766L52 45.501L52 45.5264L52 45.5508L52 45.5762L52 45.6006L52 45.625L52 45.6494L52 45.6738L52 45.6982L52 45.7227L52 45.7471L52 45.7715L52 45.7949L52 45.8193L52 45.8438L52 45.8672L52 45.8916L52 45.915L52 45.9385L52 45.9629L52 45.9863L52 46.0098L52 46.0332L52 46.0566L52 46.0801L52 46.1035L52 46.126L52 46.1494L52 46.1729L52 46.1953L52 46.2188L52 46.2412L52 46.2637L52 46.2861L52 46.3096L52 46.332L52 46.3545L52 46.377L52 46.3994L52 46.4209L52 46.4434L52 46.4648L52 46.4873L52 46.5088L52 46.5312L52 46.5527L52 46.5742L52 46.5957L52 46.6172L52 46.6387L52 46.6602L52 46.6816L52 46.7031L52 46.7236L52 46.7451L52 46.7656L52 46.7861L52 46.8076L52 46.8281L52 46.8486L52 46.8691L52 46.8896L52 46.9102L52 46.9297L52 46.9502L52 46.9697L52 46.9902L52 47.0098L52 47.0303L52 47.0498L52 47.0693L52 47.0889L52 47.1074L52 47.127L52 47.1465L52 47.166L52 47.1846L52 47.2041L52 47.2227L52 47.2412L52 47.2598L52 47.2783L52 47.2969L52 47.3154L52 47.334L52 47.3516L52 47.3701L52 47.3877L52 47.4062L52 47.4238L52 47.4414L52 47.459L52 47.4766L52 47.4941L52 47.5107L52 47.5283L52 47.5459L52 47.5625L52 47.5791L52 47.5957L52 47.6123L52 47.6289L52 47.6455L52 47.6621L52 47.6787L52 47.6943L52 47.7109L52 47.7266L52 47.7422L52 47.7578L52 47.7734L52 47.7891L52 47.8047L52 47.8193L52 47.835L52 47.8496L52 47.8652L52 47.8799L52 47.8945L52 47.9092L52 47.9238L52 47.9375L52 47.9521L52 47.9668L52 47.9805L52 47.9941L52 48.0078L52 48.0215L52 48.0352L52 48.0488L52 48.0625L52 48.0752L52 48.0889L52 48.1016L52 48.1143L52 48.127L52 48.1396L52 48.1523L52 48.165L52 48.1768L52 48.1895L52 48.2012L52 48.2129L52 48.2246L52 48.2363L52 48.248L52 48.2598L52 48.2705L52 48.2822L52 48.293L52 48.3037L52 48.3145L52 48.3252L52 48.3359L52 48.3467L52 48.3564L52 48.3672L52 48.377L52 48.3867L52 48.3965L52 48.4062L52 48.415L52 48.4248L52 48.4346L52 48.4434L52 48.4521L52 48.4609L52 48.4697L52 48.4785L52 48.4873L52 48.4951L52 48.5029L52 48.5117L52 48.5195L52 48.5273L52 48.5352L52 48.542L52 48.5498L52 48.5566L52 48.5635L52 48.5713L52 48.5771L52 48.584L52 48.5908L52 48.5967L52 48.6035L52 48.6094L52 48.6152L52 48.6211L52 48.627L52 48.6328L52 48.6377L52 48.6426L52 48.6484L52 48.6533L52 48.6582L52 48.6621L52 48.667L52 48.6719L52 48.6758L52 48.6797L52 48.6836L52 48.6875L52 48.6914L52 48.6943L52 48.6982L52 48.7041L52 48.71L52 48.7148L52 48.7188L52 48.7227L52 48.7275L52 48.7314C52 50.5254 50.5449 51.9814 48.75 51.9814C46.9551 51.9814 45.5 50.5264 45.5 48.7324L45.5 48.7285L45.5 48.7246L45.5 48.7207L45.5 48.7168L45.5 48.7119L45.5 48.707L45.5 48.7012L45.5 48.6943L45.5 48.6914L45.5 48.6875L45.5 48.6836L45.5 48.6797L45.5 48.6758L45.5 48.6719L45.5 48.667L45.5 48.6621L45.5 48.6582L45.5 48.6533L45.5 48.6484L45.5 48.6426L45.5 48.6377L45.5 48.6328L45.5 48.627L45.5 48.6211L45.5 48.6152L45.5 48.6094L45.5 48.6035L45.5 48.5967L45.5 48.5908L45.5 48.584L45.5 48.5771L45.5 48.5713L45.5 48.5635L45.5 48.5566L45.5 48.5498L45.5 48.542L45.5 48.5352L45.5 48.5273L45.5 48.5195L45.5 48.5117L45.5 48.5029L45.5 48.4951L45.5 48.4873L45.5 48.4785L45.5 48.4697L45.5 48.4609L45.5 48.4521L45.5 48.4434L45.5 48.4346L45.5 48.4248L45.5 48.415L45.5 48.4062L45.5 48.3965L45.5 48.3867L45.5 48.377L45.5 48.3672L45.5 48.3564L45.5 48.3467L45.5 48.3359L45.5 48.3252L45.5 48.3145L45.5 48.3037L45.5 48.293L45.5 48.2822L45.5 48.2705L45.5 48.2598L45.5 48.248L45.5 48.2363L45.5 48.2246L45.5 48.2129L45.5 48.2012L45.5 48.1895L45.5 48.1768L45.5 48.165L45.5 48.1523L45.5 48.1396L45.5 48.127L45.5 48.1143L45.5 48.1016L45.5 48.0889L45.5 48.0752L45.5 48.0625L45.5 48.0488L45.5 48.0352L45.5 48.0215L45.5 48.0078L45.5 47.9941L45.5 47.9805L45.5 47.9668L45.5 47.9521L45.5 47.9375L45.5 47.9238L45.5 47.9092L45.5 47.8945L45.5 47.8799L45.5 47.8652L45.5 47.8496L45.5 47.835L45.5 47.8193L45.5 47.8047L45.5 47.7891L45.5 47.7734L45.5 47.7578L45.5 47.7422L45.5 47.7266L45.5 47.7109L45.5 47.6943L45.5 47.6787L45.5 47.6621L45.5 47.6455L45.5 47.6289L45.5 47.6123L45.5 47.5957L45.5 47.5791L45.5 47.5625L45.5 47.5459L45.5 47.5283L45.5 47.5107L45.5 47.4941L45.5 47.4766L45.5 47.459L45.5 47.4414L45.5 47.4238L45.5 47.4062L45.5 47.3877L45.5 47.3701L45.5 47.3516L45.5 47.334L45.5 47.3154L45.5 47.2969L45.5 47.2783L45.5 47.2598L45.5 47.2412L45.5 47.2227L45.5 47.2041L45.5 47.1846L45.5 47.166L45.5 47.1465L45.5 47.127L45.5 47.1074L45.5 47.0889L45.5 47.0693L45.5 47.0498L45.5 47.0303L45.5 47.0098L45.5 46.9902L45.5 46.9697L45.5 46.9502L45.5 46.9297L45.5 46.9102L45.5 46.8896L45.5 46.8691L45.5 46.8486L45.5 46.8281L45.5 46.8076L45.5 46.7861L45.5 46.7656L45.5 46.7451L45.5 46.7236L45.5 46.7031L45.5 46.6816L45.5 46.6602L45.5 46.6387L45.5 46.6172L45.5 46.5957L45.5 46.5742L45.5 46.5527L45.5 46.5312L45.5 46.5088L45.5 46.4873L45.5 46.4648L45.5 46.4434L45.5 46.4209L45.5 46.3994L45.5 46.377L45.5 46.3545L45.5 46.332L45.5 46.3096L45.5 46.2861L45.5 46.2637L45.5 46.2412L45.5 46.2188L45.5 46.1953L45.5 46.1729L45.5 46.1494L45.5 46.126L45.5 46.1035L45.5 46.0801L45.5 46.0566L45.5 46.0332L45.5 46.0098L45.5 45.9863L45.5 45.9629L45.5 45.9385L45.5 45.915L45.5 45.8916L45.5 45.8672L45.5 45.8438L45.5 45.8193L45.5 45.7949L45.5 45.7715L45.5 45.7471L45.5 45.7227L45.5 45.6982L45.5 45.6738L45.5 45.6494L45.5 45.625L45.5 45.6006L45.5 45.5762L45.5 45.5508L45.5 45.5264L45.5 45.501L45.5 45.4766L45.5 45.4512L45.5 45.4268L45.5 45.4014L45.5 45.376L45.5 45.3506L45.5 45.3252L45.5 45.2998L45.5 45.2744L45.5 45.25L45.5 45.2236L45.5 45.1982L45.5 45.1729L45.5 45.1475L45.5 45.1211L45.5 45.0957L45.5 45.0703L45.5 45.0439L45.5 45.0176L45.5 44.9922L45.5 44.9658L45.5 44.9395L45.5 44.9141L45.5 44.8877L45.5 44.8613L45.5 44.835L45.5 44.8086L45.5 44.7822L45.5 44.7559L45.5 44.7295L45.5 44.7031L45.5 44.6758L45.5 44.6494L45.5 44.623L45.5 44.5967L45.5 44.5693L45.5 44.543L45.5 44.5156L45.5 44.4883L45.5 44.4619L45.5 44.4346L45.5 44.4082L45.5 44.3809L45.5 44.3535L45.5 44.3262L45.5 44.2988L45.5 44.2725L45.5 44.2451L45.5 44.2178L45.5 44.1904L45.5 44.1621L45.5 44.1348L45.5 44.1074L45.5 44.0801L45.5 44.0527L45.5 44.0254L45.5 43.9971L45.5 43.9697L45.5 43.9424L45.5 43.9141L45.5 43.8867L45.5 43.8584L45.5 43.8311L45.5 43.8027L45.5 43.7754L45.5 43.7471L45.5 43.7197L45.5 43.6914L45.5 43.6631L45.5 43.6348L45.5 43.6074L45.5 43.5791L45.5 43.5508L45.5 43.5225L45.5 43.4941L45.5 43.4658L45.5 43.4375L45.5 43.4092L45.5 43.3809L45.5 43.3525L45.5 43.3242L45.5 43.2959L45.5 43.2676L45.5 43.2393L45.5 43.2109L45.5 43.1826L45.5 43.1533L45.5 43.125L45.5 43.0967L45.5 43.0684L45.5 43.0391L45.5 43.0107L45.5 42.9824L45.5 42.9531L45.5 42.9248L45.5 42.8965L45.5 42.8672L45.5 42.8389L45.5 42.8096L45.5 42.7812L45.5 42.752L45.5 42.7236L45.5 42.6943L45.5 42.666L45.5 42.6367L45.5 42.6084L45.5 42.5791L45.5 42.5498L45.5 42.5215L45.5 42.4922L45.5 42.4629L45.5 42.4346L45.5 42.4053L45.5 42.376L45.5 42.3477L45.5 42.3184L45.5 42.2891L45.5 42.2607L45.5 42.2314L45.5 42.2021L45.5 42.1729L45.5 42.1445L45.5 42.1152L45.5 42.0859L45.5 42.0566L45.5 42.0273L45.5 41.999L45.5 41.9697L45.5 41.9404L45.5 41.9111L45.5 41.8828L45.5 41.8535L45.5 41.8242L45.5 41.7949L45.5 41.7656L45.5 41.7363L45.5 41.708L45.5 41.6787L45.5 41.6494L45.5 41.6201L45.5 41.5908L45.5 41.5615L45.5 41.5322L45.5 41.5039L45.5 41.4746L45.5 41.4453L45.5 41.416L45.5 41.3867L45.5 41.3584L45.5 41.3291L45.5 41.2998L45.5 41.2705L45.5 41.2412L45.5 41.2129L45.5 41.1836L45.5 41.1543L45.5 41.125L45.5 41.0967L45.5 41.0674L45.5 41.0381L45.5 41.0088L45.5 40.9795L45.5 40.9512L45.5 40.9219L45.5 40.8926L45.5 40.8643L45.5 40.835L45.5 40.8057L45.5 40.7773L45.5 40.748L45.5 40.7188L45.5 40.6904L45.5 40.6611L45.5 40.6318L45.5 40.6035L45.5 40.5752L45.5 40.5459L45.5 40.5166L45.5 40.4883L45.5 40.46L45.5 40.4307L45.5 40.4023L45.5 40.373L45.5 40.3447L45.5 40.3154L45.5 40.2871L45.5 40.2588L45.5 40.2295L45.5 40.2012L45.5 40.1729L45.5 40.1436L45.5 40.1152L45.5 40.0869L45.5 40.0586L45.5 40.0303L45.5 40.001L45.5 39.9727L45.5 39.9443L45.5 39.916L45.5 39.8877L45.5 39.8594L45.5 39.8311L45.5 39.8027L45.5 39.7744L45.5 39.7461L45.5 39.7178L45.5 39.6904L45.5 39.6621L45.5 39.6338L45.5 39.6055L45.5 39.5781L45.5 39.5498L45.5 39.5215L45.5 39.4932L45.5 39.4658L45.5 39.4385L45.5 39.4102L45.5 39.3818L45.5 39.3545L45.5 39.3262L45.5 39.2988L45.5 39.2715L45.5 39.2441L45.5 39.2158L45.5 39.1885L45.5 39.1611L45.5 39.1338L45.5 39.1064L45.5 39.0791L45.5 39.0508L45.5 39.0234L45.5 38.9961L45.5 38.9697L45.5 38.9424L45.5 38.915L45.5 38.8877L45.5 38.8604L45.5 38.834L45.5 38.8066L45.5 38.7793L45.5 38.7529L45.5 38.7256L45.5 38.6992L45.5 38.6719L45.5 38.6455L45.5 38.6191L45.5 38.5918L45.5 38.5654L45.5 38.5391L45.5 38.5127L45.5 38.4863L45.5 38.46L45.5 38.4336L45.5 38.4072L45.5 38.3809L45.5 38.3545L45.5 38.3281L45.5 38.3027L45.5 38.2764L45.5 38.25L45.5 38.2236L45.5 38.1982L45.5 38.1719L45.5 38.1465L45.5 38.1211L45.5 38.0947L45.5 38.0693L45.5 38.0439L45.5 38.0186L45.5 37.9932L45.5 37.9678L45.5 37.9424L45.5 37.917L45.5 37.8916L45.5 37.8662L45.5 37.8408L45.5 37.8164L45.5 37.791L45.5 37.7666L45.5 37.7412L45.5 37.7168L45.5 37.6914L45.5 37.667L45.5 37.6426L45.5 37.6182L45.5 37.5938C45.5 35.0977 43.3569 32.4883 40.625 32.4883C38.9216 32.4883 37.0415 33.4141 35.75 35.6172L35.75 35.626L35.75 35.6592L35.75 35.6924L35.75 35.7266L35.75 35.7598L35.75 35.7939L35.75 35.8271L35.75 35.8613L35.75 35.8955L35.75 35.9287L35.75 35.9629L35.75 35.9971L35.75 36.0312L35.75 36.0654L35.75 36.0996L35.75 36.1338L35.75 36.168L35.75 36.2021L35.75 36.2363L35.75 36.2705L35.75 36.3057L35.75 36.3398L35.75 36.374L35.75 36.4092L35.75 36.4434L35.75 36.4785L35.75 36.5127L35.75 36.5479L35.75 36.583L35.75 36.6172L35.75 36.6523L35.75 36.6875L35.75 36.7227L35.75 36.7568L35.75 36.792L35.75 36.8271L35.75 36.8623L35.75 36.8975L35.75 36.9326L35.75 36.9688L35.75 37.0029L35.75 37.0391L35.75 37.0742L35.75 37.1094L35.75 37.1455L35.75 37.1807L35.75 37.2158L35.75 37.252L35.75 37.2871L35.75 37.3232L35.75 37.3584L35.75 37.3936L35.75 37.4297L35.75 37.4658L35.75 37.501L35.75 37.5371L35.75 37.5723L35.75 37.6084L35.75 37.6445L35.75 37.6797L35.75 37.7158L35.75 37.752L35.75 37.7881L35.75 37.8242L35.75 37.8604L35.75 37.8965L35.75 37.9326L35.75 37.9688L35.75 38.0039L35.75 38.04L35.75 38.0771L35.75 38.1133L35.75 38.1494L35.75 38.1855L35.75 38.2217L35.75 38.2578L35.75 38.2939L35.75 38.3301L35.75 38.3662L35.75 38.4033L35.75 38.4395L35.75 38.4756L35.75 38.5117L35.75 38.5479L35.75 38.585L35.75 38.6211L35.75 38.6572L35.75 38.6943L35.75 38.7305L35.75 38.7666L35.75 38.8037L35.75 38.8398L35.75 38.876L35.75 38.9131L35.75 38.9492L35.75 38.9854L35.75 39.0225L35.75 39.0586L35.75 39.0957L35.75 39.1318L35.75 39.168L35.75 39.2051L35.75 39.2422L35.75 39.2783L35.75 39.3145L35.75 39.3516L35.75 39.3877L35.75 39.4248L35.75 39.4609L35.75 39.498L35.75 39.5342L35.75 39.5713L35.75 39.6074L35.75 39.6436L35.75 39.6807L35.75 39.7168L35.75 39.7539L35.75 39.79L35.75 39.8271L35.75 39.8633L35.75 39.9004L35.75 39.9365L35.75 39.9727L35.75 40.0098L35.75 40.0459L35.75 40.083L35.75 40.1191L35.75 40.1553L35.75 40.1924L35.75 40.2285L35.75 40.2656L35.75 40.3018L35.75 40.3379L35.75 40.375L35.75 40.4111L35.75 40.4473L35.75 40.4834L35.75 40.5205L35.75 40.5566L35.75 40.5928L35.75 40.6299L35.75 40.666L35.75 40.7021L35.75 40.7383L35.75 40.7744L35.75 40.8105L35.75 40.8477L35.75 40.8838L35.75 40.9199L35.75 40.9561L35.75 40.9922L35.75 41.0283L35.75 41.0645L35.75 41.1006L35.75 41.1367L35.75 41.1729L35.75 41.209L35.75 41.2451L35.75 41.2812L35.75 41.3164L35.75 41.3525L35.75 41.3887L35.75 41.4248L35.75 41.46L35.75 41.4961L35.75 41.5322L35.75 41.5684L35.75 41.6035L35.75 41.6396L35.75 41.6748L35.75 41.7109L35.75 41.7471L35.75 41.7822L35.75 41.8174L35.75 41.8535L35.75 41.8887L35.75 41.9248L35.75 41.96L35.75 41.9951L35.75 42.0303L35.75 42.0664L35.75 42.1016L35.75 42.1367L35.75 42.1719L35.75 42.207L35.75 42.2422L35.75 42.2773L35.75 42.3125L35.75 42.3477L35.75 42.3828L35.75 42.417L35.75 42.4521L35.75 42.4873L35.75 42.5215L35.75 42.5566L35.75 42.5918L35.75 42.626L35.75 42.6611L35.75 42.6953L35.75 42.7305L35.75 42.7646L35.75 42.7988L35.75 42.833L35.75 42.8682L35.75 42.9023L35.75 42.9365L35.75 42.9707L35.75 43.0049L35.75 43.0391L35.75 43.0732L35.75 43.1074L35.75 43.1416L35.75 43.1748L35.75 43.209L35.75 43.2432L35.75 43.2773L35.75 43.3105L35.75 43.3438L35.75 43.3779L35.75 43.4111L35.75 43.4453L35.75 43.4785L35.75 43.5117L35.75 43.5449L35.75 43.5781L35.75 43.6113L35.75 43.6445L35.75 43.6777L35.75 43.7109L35.75 43.7441L35.75 43.7764L35.75 43.8096L35.75 43.8428L35.75 43.875L35.75 43.9082L35.75 43.9404L35.75 43.9727L35.75 44.0049L35.75 44.0381L35.75 44.0703L35.75 44.1025L35.75 44.1348L35.75 44.167L35.75 44.1992L35.75 44.2305L35.75 44.2627L35.75 44.2949L35.75 44.3262L35.75 44.3584L35.75 44.3896L35.75 44.4219L35.75 44.4531L35.75 44.4844L35.75 44.5156L35.75 44.5469L35.75 44.5781L35.75 44.6094L35.75 44.6406L35.75 44.6719L35.75 44.7021L35.75 44.7334L35.75 44.7646L35.75 44.7949L35.75 44.8252L35.75 44.8555L35.75 44.8867L35.75 44.917L35.75 44.9473L35.75 44.9775L35.75 45.0068L35.75 45.0371L35.75 45.0674L35.75 45.0977L35.75 45.127L35.75 45.1562L35.75 45.1865L35.75 45.2158L35.75 45.2451L35.75 45.2744L35.75 45.3037L35.75 45.333L35.75 45.3623L35.75 45.3916L35.75 45.4209L35.75 45.4492L35.75 45.4775L35.75 45.5068L35.75 45.5352L35.75 45.5635L35.75 45.5918L35.75 45.6201L35.75 45.6484L35.75 45.6768L35.75 45.7051L35.75 45.7324L35.75 45.7607L35.75 45.7881L35.75 45.8154L35.75 45.8438L35.75 45.8711L35.75 45.8984L35.75 45.9258L35.75 45.9521L35.75 45.9795L35.75 46.0068L35.75 46.0332L35.75 46.0605L35.75 46.0869L35.75 46.1133L35.75 46.1396L35.75 46.166L35.75 46.1924L35.75 46.2188L35.75 46.2451L35.75 46.2705L35.75 46.2969L35.75 46.3223L35.75 46.3477L35.75 46.373L35.75 46.3984L35.75 46.4238L35.75 46.4492L35.75 46.4746L35.75 46.499L35.75 46.5244L35.75 46.5488L35.75 46.5742L35.75 46.5977L35.75 46.6221L35.75 46.6465L35.75 46.6709L35.75 46.6953L35.75 46.7188L35.75 46.7432L35.75 46.7666L35.75 46.79L35.75 46.8135L35.75 46.8369L35.75 46.8604L35.75 46.8838L35.75 46.9072L35.75 46.9297L35.75 46.9521L35.75 46.9746L35.75 46.998L35.75 47.0205L35.75 47.043L35.75 47.0645L35.75 47.0869L35.75 47.1084L35.75 47.1309L35.75 47.1523L35.75 47.1738L35.75 47.1953L35.75 47.2168L35.75 47.2383L35.75 47.2588L35.75 47.2793L35.75 47.3008L35.75 47.3213L35.75 47.3418L35.75 47.3623L35.75 47.3828L35.75 47.4033L35.75 47.4229L35.75 47.4424L35.75 47.4629L35.75 47.4824L35.75 47.502L35.75 47.5215L35.75 47.541L35.75 47.5596L35.75 47.5791L35.75 47.5977L35.75 47.6162L35.75 47.6348L35.75 47.6533L35.75 47.6719L35.75 47.6895L35.75 47.708L35.75 47.7256L35.75 47.7432L35.75 47.7607L35.75 47.7783L35.75 47.7959L35.75 47.8135L35.75 47.8301L35.75 47.8467L35.75 47.8643L35.75 47.8809L35.75 47.8975L35.75 47.9131L35.75 47.9297L35.75 47.9453L35.75 47.9609L35.75 47.9775L35.75 47.9932L35.75 48.0088L35.75 48.0234L35.75 48.0391L35.75 48.0537L35.75 48.0684L35.75 48.083L35.75 48.0977L35.75 48.1123L35.75 48.127L35.75 48.1406L35.75 48.1543L35.75 48.1689L35.75 48.1826L35.75 48.1953L35.75 48.209L35.75 48.2227L35.75 48.2354L35.75 48.248L35.75 48.2607L35.75 48.2734L35.75 48.2861L35.75 48.2979L35.75 48.3105L35.75 48.3223L35.75 48.334L35.75 48.3457L35.75 48.3574L35.75 48.3682L35.75 48.3799L35.75 48.3906L35.75 48.4014L35.75 48.4121L35.75 48.4219L35.75 48.4326L35.75 48.4424L35.75 48.4531L35.75 48.4629L35.75 48.4727L35.75 48.4814L35.75 48.4912L35.75 48.5L35.75 48.5088L35.75 48.5186L35.75 48.5264L35.75 48.5352L35.75 48.5439L35.75 48.5518L35.75 48.5596L35.75 48.5674L35.75 48.5752L35.75 48.582L35.75 48.5898L35.75 48.5967L35.75 48.6035L35.75 48.6104L35.75 48.6172L35.75 48.623L35.75 48.6299L35.75 48.6357L35.75 48.6416L35.75 48.6475L35.75 48.6523L35.75 48.6582L35.75 48.6631L35.75 48.668L35.75 48.6729L35.75 48.6777L35.75 48.6816L35.75 48.6865L35.75 48.6904L35.75 48.6943L35.75 48.6982L35.75 48.7012L35.75 48.7051L35.75 48.7109L35.75 48.7158L35.75 48.7207L35.75 48.7246L35.75 48.7285L35.75 48.7324C35.75 50.5264 34.2949 51.9814 32.5 51.9814C30.7051 51.9814 29.25 50.5264 29.25 48.7324L29.25 48.7285L29.25 48.7246L29.25 48.7207L29.25 48.7158L29.25 48.7109L29.25 48.7051L29.25 48.7012L29.25 48.6982L29.25 48.6943L29.25 48.6904L29.25 48.6865L29.25 48.6816L29.25 48.6777L29.25 48.6729L29.25 48.668L29.25 48.6631L29.25 48.6582L29.25 48.6523L29.25 48.6475L29.25 48.6416L29.25 48.6357L29.25 48.6299L29.25 48.623L29.25 48.6172L29.25 48.6104L29.25 48.6035L29.25 48.5967L29.25 48.5898L29.25 48.582L29.25 48.5752L29.25 48.5674L29.25 48.5596L29.25 48.5518L29.25 48.5439L29.25 48.5352L29.25 48.5264L29.25 48.5186L29.25 48.5088L29.25 48.5L29.25 48.4912L29.25 48.4814L29.25 48.4727L29.25 48.4629L29.25 48.4531L29.25 48.4424L29.25 48.4326L29.25 48.4219L29.25 48.4121L29.25 48.4014L29.25 48.3906L29.25 48.3799L29.25 48.3682L29.25 48.3574L29.25 48.3457L29.25 48.334L29.25 48.3223L29.25 48.3105L29.25 48.2979L29.25 48.2861L29.25 48.2734L29.25 48.2607L29.25 48.248L29.25 48.2354L29.25 48.2227L29.25 48.209L29.25 48.1953L29.25 48.1826L29.25 48.1689L29.25 48.1543L29.25 48.1406L29.25 48.127L29.25 48.1123L29.25 48.0977L29.25 48.083L29.25 48.0684L29.25 48.0537L29.25 48.0391L29.25 48.0234L29.25 48.0088L29.25 47.9932L29.25 47.9775L29.25 47.9609L29.25 47.9453L29.25 47.9297L29.25 47.9131L29.25 47.8975L29.25 47.8809L29.25 47.8643L29.25 47.8467L29.25 47.8301L29.25 47.8135L29.25 47.7959L29.25 47.7783L29.25 47.7607L29.25 47.7432L29.25 47.7256L29.25 47.708L29.25 47.6895L29.25 47.6719L29.25 47.6533L29.25 47.6348L29.25 47.6162L29.25 47.5977L29.25 47.5791L29.25 47.5596L29.25 47.541L29.25 47.5215L29.25 47.502L29.25 47.4824L29.25 47.4629L29.25 47.4424L29.25 47.4229L29.25 47.4033L29.25 47.3828L29.25 47.3623L29.25 47.3418L29.25 47.3213L29.25 47.3008L29.25 47.2793L29.25 47.2588L29.25 47.2383L29.25 47.2168L29.25 47.1953L29.25 47.1738L29.25 47.1523L29.25 47.1309L29.25 47.1084L29.25 47.0869L29.25 47.0645L29.25 47.043L29.25 47.0205L29.25 46.998L29.25 46.9746L29.25 46.9521L29.25 46.9297L29.25 46.9072L29.25 46.8838L29.25 46.8604L29.25 46.8369L29.25 46.8135L29.25 46.79L29.25 46.7666L29.25 46.7432L29.25 46.7188L29.25 46.6953L29.25 46.6709L29.25 46.6465L29.25 46.6221L29.25 46.5977L29.25 46.5742L29.25 46.5488L29.25 46.5244L29.25 46.499L29.25 46.4746L29.25 46.4492L29.25 46.4238L29.25 46.3984L29.25 46.373L29.25 46.3477L29.25 46.3223L29.25 46.2969L29.25 46.2705L29.25 46.2451L29.25 46.2188L29.25 46.1924L29.25 46.166L29.25 46.1396L29.25 46.1133L29.25 46.0869L29.25 46.0605L29.25 46.0332L29.25 46.0068L29.25 45.9795L29.25 45.9521L29.25 45.9258L29.25 45.8984L29.25 45.8711L29.25 45.8438L29.25 45.8154L29.25 45.7881L29.25 45.7607L29.25 45.7324L29.25 45.7051L29.25 45.6768L29.25 45.6484L29.25 45.6201L29.25 45.5918L29.25 45.5635L29.25 45.5352L29.25 45.5068L29.25 45.4775L29.25 45.4492L29.25 45.4209L29.25 45.3916L29.25 45.3623L29.25 45.333L29.25 45.3037L29.25 45.2744L29.25 45.2451L29.25 45.2158L29.25 45.1865L29.25 45.1562L29.25 45.127L29.25 45.0977L29.25 45.0674L29.25 45.0371L29.25 45.0068L29.25 44.9775L29.25 44.9473L29.25 44.917L29.25 44.8867L29.25 44.8555L29.25 44.8252L29.25 44.7949L29.25 44.7646L29.25 44.7334L29.25 44.7021L29.25 44.6719L29.25 44.6406L29.25 44.6094L29.25 44.5781L29.25 44.5469L29.25 44.5156L29.25 44.4844L29.25 44.4531L29.25 44.4219L29.25 44.3896L29.25 44.3584L29.25 44.3262L29.25 44.2949L29.25 44.2627L29.25 44.2305L29.25 44.1992L29.25 44.167L29.25 44.1348L29.25 44.1025L29.25 44.0703L29.25 44.0381L29.25 44.0049L29.25 43.9727L29.25 43.9404L29.25 43.9082L29.25 43.875L29.25 43.8428L29.25 43.8096L29.25 43.7764L29.25 43.7441L29.25 43.7109L29.25 43.6777L29.25 43.6445L29.25 43.6113L29.25 43.5781L29.25 43.5449L29.25 43.5117L29.25 43.4785L29.25 43.4453L29.25 43.4111L29.25 43.3779L29.25 43.3438L29.25 43.3105L29.25 43.2773L29.25 43.2432L29.25 43.209L29.25 43.1748L29.25 43.1416L29.25 43.1074L29.25 43.0732L29.25 43.0391L29.25 43.0049L29.25 42.9707L29.25 42.9365L29.25 42.9023L29.25 42.8682L29.25 42.833L29.25 42.7988L29.25 42.7646L29.25 42.7305L29.25 42.6953L29.25 42.6611L29.25 42.626L29.25 42.5918L29.25 42.5566L29.25 42.5215L29.25 42.4873L29.25 42.4521L29.25 42.417L29.25 42.3828L29.25 42.3477L29.25 42.3125L29.25 42.2773L29.25 42.2422L29.25 42.207L29.25 42.1719L29.25 42.1367L29.25 42.1016L29.25 42.0664L29.25 42.0303L29.25 41.9951L29.25 41.96L29.25 41.9248L29.25 41.8887L29.25 41.8535L29.25 41.8174L29.25 41.7822L29.25 41.7471L29.25 41.7109L29.25 41.6748L29.25 41.6396L29.25 41.6035L29.25 41.5684L29.25 41.5322L29.25 41.4961L29.25 41.46L29.25 41.4248L29.25 41.3887L29.25 41.3525L29.25 41.3164L29.25 41.2812L29.25 41.2451L29.25 41.209L29.25 41.1729L29.25 41.1367L29.25 41.1006L29.25 41.0645L29.25 41.0283L29.25 40.9922L29.25 40.9561L29.25 40.9199L29.25 40.8838L29.25 40.8477L29.25 40.8105L29.25 40.7744L29.25 40.7383L29.25 40.7021L29.25 40.666L29.25 40.6299L29.25 40.5928L29.25 40.5566L29.25 40.5205L29.25 40.4834L29.25 40.4473L29.25 40.4111L29.25 40.375L29.25 40.3379L29.25 40.3018L29.25 40.2656L29.25 40.2285L29.25 40.1924L29.25 40.1553L29.25 40.1191L29.25 40.083L29.25 40.0459L29.25 40.0098L29.25 39.9727L29.25 39.9365L29.25 39.9004L29.25 39.8633L29.25 39.8271L29.25 39.79L29.25 39.7539L29.25 39.7168L29.25 39.6807L29.25 39.6436L29.25 39.6074L29.25 39.5713L29.25 39.5342L29.25 39.498L29.25 39.4609L29.25 39.4248L29.25 39.3877L29.25 39.3516L29.25 39.3145L29.25 39.2783L29.25 39.2422L29.25 39.2051L29.25 39.168L29.25 39.1318L29.25 39.0957L29.25 39.0586L29.25 39.0225L29.25 38.9854L29.25 38.9492L29.25 38.9131L29.25 38.876L29.25 38.8398L29.25 38.8037L29.25 38.7666L29.25 38.7305L29.25 38.6943L29.25 38.6572L29.25 38.6211L29.25 38.585L29.25 38.5479L29.25 38.5117L29.25 38.4756L29.25 38.4395L29.25 38.4033L29.25 38.3662L29.25 38.3301L29.25 38.2939L29.25 38.2578L29.25 38.2217L29.25 38.1855L29.25 38.1494L29.25 38.1133L29.25 38.0771L29.25 38.04L29.25 38.0039L29.25 37.9688L29.25 37.9326L29.25 37.8965L29.25 37.8604L29.25 37.8242L29.25 37.7881L29.25 37.752L29.25 37.7158L29.25 37.6797L29.25 37.6445L29.25 37.6084L29.25 37.5723L29.25 37.5371L29.25 37.501L29.25 37.4658L29.25 37.4297L29.25 37.3936L29.25 37.3584L29.25 37.3232L29.25 37.2871L29.25 37.252L29.25 37.2158L29.25 37.1807L29.25 37.1455L29.25 37.1094L29.25 37.0742L29.25 37.0391L29.25 37.0029L29.25 36.9688L29.25 36.9326L29.25 36.8975L29.25 36.8623L29.25 36.8271L29.25 36.792L29.25 36.7568L29.25 36.7227L29.25 36.6875L29.25 36.6523L29.25 36.6172L29.25 36.583L29.25 36.5479L29.25 36.5127L29.25 36.4785L29.25 36.4434L29.25 36.4092L29.25 36.374L29.25 36.3398L29.25 36.3057L29.25 36.2705L29.25 36.2363L29.25 36.2021L29.25 36.168L29.25 36.1338L29.25 36.0996L29.25 36.0654L29.25 36.0312L29.25 35.9971L29.25 35.9629L29.25 35.9287L29.25 35.8955L29.25 35.8613L29.25 35.8271L29.25 35.7939L29.25 35.7598L29.25 35.7266L29.25 35.6924L29.25 35.6592L29.25 35.626L29.25 35.5928L29.25 35.5586L29.25 35.5254L29.25 35.4922L29.25 35.459L29.25 35.4258L29.25 35.3926L29.25 35.3604L29.25 35.3271L29.25 35.2939L29.25 35.2617L29.25 35.2285L29.25 35.1963L29.25 35.1631L29.25 35.1309L29.25 35.0986L29.25 35.0654L29.25 35.0332L29.25 35.001L29.25 34.9688L29.25 34.9365L29.25 34.9043L29.25 34.8721L29.25 34.8408L29.25 34.8086L29.25 34.7959L29.25 34.7832L29.25 34.7705L29.25 34.7578L29.25 34.7451L29.25 34.7314L29.25 34.7188L29.25 34.7061L29.25 34.6924L29.25 34.6797L29.25 34.667L29.25 34.6543L29.25 34.6406L29.25 34.6279L29.25 34.6143L29.25 34.6016L29.25 34.5879L29.25 34.5752L29.25 34.5615L29.25 34.5488L29.25 34.5352L29.25 34.5215L29.25 34.5088L29.25 34.4951L29.25 34.4824L29.25 34.4688L29.25 34.4551L29.25 34.4414L29.25 34.4287L29.25 34.415L29.25 34.4014L29.25 34.3877L29.25 34.374L29.25 34.3604L29.25 34.3467L29.25 34.334L29.25 34.3203L29.25 34.3066L29.25 34.293L29.25 34.2793L29.25 34.2656L29.25 34.251L29.25 34.2373L29.25 34.2236L29.25 34.21L29.25 34.1963L29.25 34.1826L29.25 34.1689L29.25 34.1553L29.25 34.1406L29.25 34.127L29.25 34.1133L29.25 34.0996L29.25 34.085L29.25 34.0713L29.25 34.0576L29.25 34.043L29.25 34.0293L29.25 34.0156L29.25 34.001L29.25 33.9873L29.25 33.9736L29.25 33.959L29.25 33.9453L29.25 33.9307L29.25 33.917L29.25 33.9023L29.25 33.8887L29.25 33.874L29.25 33.8604L29.25 33.8457L29.25 33.832L29.25 33.8174L29.25 33.8037L29.25 33.7891L29.25 33.7744L29.25 33.7607L29.25 33.7461L29.25 33.7314L29.25 33.7178L29.25 33.7031L29.25 33.6885L29.25 33.6748L29.25 33.6602L29.25 33.6455L29.25 33.6318L29.25 33.6172L29.25 33.6025L29.25 33.5879L29.25 33.5742L29.25 33.5596L29.25 33.5449L29.25 33.5303L29.25 33.5156L29.25 33.502L29.25 33.4873L29.25 33.4727L29.25 33.458L29.25 33.4434L29.25 33.4287L29.25 33.415L29.25 33.4004L29.25 33.3857L29.25 33.3711L29.25 33.3564L29.25 33.3418L29.25 33.3271L29.25 33.3135L29.25 33.2988L29.25 33.2842L29.25 33.2695L29.25 33.2549L29.25 33.2402L29.25 33.2256L29.25 33.2109L29.25 33.1963L29.25 33.1816L29.25 33.167L29.25 33.1523L29.25 33.1377L29.25 33.123L29.25 33.1084L29.25 33.0938L29.25 33.0791L29.25 33.0645L29.25 33.0498L29.25 33.0352L29.25 33.0205L29.25 33.0068L29.25 32.9922L29.25 32.9775L29.25 32.9629L29.25 32.9482L29.25 32.9336L29.25 32.9189L29.25 32.9043L29.25 32.8896L29.25 32.875L29.25 32.8604L29.25 32.8457L29.25 32.8311L29.25 32.8164L29.25 32.8018L29.25 32.7871L29.25 32.7725L29.25 32.7578L29.25 32.7432L29.25 32.7285L29.25 32.7139L29.25 32.6992L29.25 32.6846L29.25 32.6699L29.25 32.6553L29.25 32.6406L29.25 32.626L29.25 32.6113L29.25 32.5967L29.25 32.582L29.25 32.5674L29.25 32.5527L29.25 32.5381L29.25 32.5244L29.25 32.5098L29.25 32.4951L29.25 32.4805L29.25 32.4658L29.25 32.4512L29.25 32.4365L29.25 32.4219L29.25 32.4082L29.25 32.3936L29.25 32.3789L29.25 32.3643L29.25 32.3496L29.25 32.3359L29.25 32.3213L29.25 32.3066L29.25 32.292L29.25 32.2773L29.25 32.2627L29.25 32.249L29.25 32.2344L29.25 32.2197L29.25 32.2051L29.25 32.1914L29.25 32.1768L29.25 32.1621L29.25 32.1484L29.25 32.1338L29.25 32.1191L29.25 32.1055L29.25 32.0908L29.25 32.0762L29.25 32.0625L29.25 32.0479L29.25 32.0332L29.25 32.0195L29.25 32.0049L29.25 31.9912L29.25 31.9766L29.25 31.9629L29.25 31.9482L29.25 31.9346L29.25 31.9199L29.25 31.9062L29.25 31.8916L29.25 31.8779L29.25 31.8633L29.25 31.8496L29.25 31.8359L29.25 31.8213L29.25 31.8076L29.25 31.793L29.25 31.7793L29.25 31.7656L29.25 31.751L29.25 31.7373L29.25 31.7236L29.25 31.709L29.25 31.6953L29.25 31.6816L29.25 31.668L29.25 31.6543L29.25 31.6406L29.25 31.626L29.25 31.6123L29.25 31.5986L29.25 31.585L29.25 31.5713L29.25 31.5576L29.25 31.5439L29.25 31.5303L29.25 31.5166L29.25 31.5029L29.25 31.4893L29.25 31.4756L29.25 31.4619L29.25 31.4482L29.25 31.4355L29.25 31.4219L29.25 31.4082L29.25 31.3945L29.25 31.3809L29.25 31.3672L29.25 31.3545L29.25 31.3408L29.25 31.3281L29.25 31.3145L29.25 31.3008L29.25 31.2881L29.25 31.2744L29.25 31.2607L29.25 31.248L29.25 31.2344L29.25 31.2217L29.25 31.208L29.25 31.1953L29.25 31.1826L29.25 31.1689L29.25 31.1562L29.25 31.1436L29.25 31.1299L29.25 31.1172L29.25 31.1045L29.25 31.0908L29.25 31.0781L29.25 31.0654L29.25 31.0527L29.25 31.04L29.25 31.0273L29.25 31.0146L29.25 31.002L29.25 30.9893L29.25 30.9766L29.25 30.9639L29.25 30.9512L29.25 30.9385L29.25 30.9258L29.25 30.9131L29.25 30.9004L29.25 30.8887L29.25 30.876L29.25 30.8643L29.25 30.8516L29.25 30.8389L29.25 30.8271L29.25 30.8145L29.25 30.8018L29.25 30.79L29.25 30.7773L29.25 30.7656L29.25 30.7539L29.25 30.7412L29.25 30.7295L29.25 30.7168L29.25 30.7051L29.25 30.6934L29.25 30.6816L29.25 30.6699L29.25 30.6582L29.25 30.6455L29.25 30.6338L29.25 30.6221L29.25 30.6104L29.25 30.5986L29.25 30.5869L29.25 30.5752L29.25 30.5645L29.25 30.5527L29.25 30.541L29.25 30.5293L29.25 30.5186L29.25 30.5068L29.25 30.4951L29.25 30.4844L29.25 30.4727L29.25 30.4619L29.25 30.4502L29.25 30.4395L29.25 30.4277L29.25 30.417L29.25 30.4062L29.25 30.3945L29.25 30.3838L29.25 30.373L29.25 30.3623L29.25 30.3516L29.25 30.3408L29.25 30.3301L29.25 30.3193L29.25 30.3086L29.25 30.2979L29.25 30.2871L29.25 30.2764L29.25 30.2656L29.25 30.2549L29.25 30.2451L29.25 30.2344L29.25 30.2236L29.25 30.2139L29.25 30.2031L29.25 30.1934L29.25 30.1826L29.25 30.1729L29.25 30.1631L29.25 30.1523L29.25 30.1426L29.25 30.1328L29.25 30.123L29.25 30.1123L29.25 30.1025L29.25 30.0928L29.25 30.083L29.25 30.0732L29.25 30.0635L29.25 30.0537L29.25 30.0449L29.25 30.0352L29.25 30.0254L29.25 30.0166L29.25 30.0068L29.25 29.9971L29.25 29.9883L29.25 29.9785L29.25 29.9697L29.25 29.96L29.25 29.9512L29.25 29.9424L29.25 29.9336L29.25 29.9238L29.25 29.915L29.25 29.9062L29.25 29.8975L29.25 29.8887L29.25 29.8799L29.25 29.8711L29.25 29.8633L29.25 29.8545L29.25 29.8457L29.25 29.8369L29.25 29.8291L29.25 29.8203L29.25 29.8125L29.25 29.8037L29.25 29.7959L29.25 29.7871L29.25 29.7793L29.25 29.7715L29.25 29.7627L29.25 29.7549L29.25 29.7471L29.25 29.7393L29.25 29.7314L29.25 29.7236L29.25 29.7158L29.25 29.708L29.25 29.7012L29.25 29.6934L29.25 29.6855L29.25 29.6787L29.25 29.6709L29.25 29.6641L29.25 29.6562L29.25 29.6494L29.25 29.6416L29.25 29.6348L29.25 29.6279L29.25 29.6211L29.25 29.6143L29.25 29.6074L29.25 29.6006L29.25 29.5938L29.25 29.5869L29.25 29.5801L29.25 29.5732L29.25 29.5664L29.25 29.5605L29.25 29.5537L29.25 29.5479L29.25 29.542L29.25 29.5352L29.25 29.5293L29.25 29.5234L29.25 29.5166L29.25 29.5107L29.25 29.5049L29.25 29.499L29.25 29.4932L29.25 29.4873L29.25 29.4814L29.25 29.4756L29.25 29.4707L29.25 29.4648L29.25 29.459L29.25 29.4541L29.25 29.4482L29.25 29.4434L29.25 29.4385L29.25 29.4326L29.25 29.4277L29.25 29.4229L29.25 29.418L29.25 29.4131L29.25 29.4082L29.25 29.4033L29.25 29.3984L29.25 29.3936L29.25 29.3896L29.25 29.3848L29.25 29.3799L29.25 29.376L29.25 29.3721L29.25 29.3672L29.25 29.3633L29.25 29.3594L29.25 29.3555L29.25 29.3516L29.25 29.3477L29.25 29.3438L29.25 29.3398L29.25 29.3359L29.25 29.332L29.25 29.3291L29.25 29.3252L29.25 29.3213L29.25 29.3184L29.25 29.3145L29.25 29.3115L29.25 29.3057L29.25 29.2998L29.25 29.2939L29.25 29.2881L29.25 29.2832L29.25 29.2783L29.25 29.2734L29.25 29.2686L29.25 29.2646L29.25 29.2607L29.25 29.2559L29.25 29.2529L29.25 29.249L29.25 29.2461L29.25 29.2422C29.25 27.4473 30.7051 25.9902 32.5 25.9902Z"
            fill-opacity="1.000000" fill-rule="evenodd" />

    </symbol>

    <symbol viewBox="0 0 65 64.9766" id='instagram-icon'>
        <path
            d="M19.0764 0.398438C13.7858 0.637695 9.2002 1.93066 5.49731 5.61621C1.78162 9.32129 0.50415 13.9238 0.264893 19.1572C0.116089 22.4238 -0.753662 47.1025 1.76868 53.5742C3.46973 57.9404 6.81995 61.2979 11.2277 63.0039C13.2844 63.8037 15.6323 64.3447 19.0764 64.5029C47.874 65.8057 58.549 65.0957 63.0505 53.5742C63.8494 51.5234 64.399 49.1787 64.551 45.7441C65.8673 16.8828 64.3376 10.627 59.3187 5.61621C55.3379 1.64648 50.6552 -1.05566 19.0764 0.398438ZM19.3416 58.6982C16.1885 58.5566 14.4778 58.0312 13.3362 57.5889C10.4645 56.4736 8.3075 54.3262 7.19836 51.4727C5.27747 46.5547 5.91455 23.1982 6.08594 19.4189C6.25403 15.7168 7.00427 12.334 9.61731 9.72168C12.8512 6.49707 17.0293 4.91699 45.4777 6.2002C49.1902 6.36719 52.5825 7.11621 55.202 9.72168C58.4358 12.9463 60.0398 17.1553 58.7334 45.4844C58.5911 48.6279 58.064 50.334 57.621 51.4727C54.6943 58.9697 47.9613 60.0107 19.3416 58.6982ZM45.7914 15.2354C45.7914 17.3701 47.5281 19.1064 49.6721 19.1064C51.8162 19.1064 53.5559 17.3701 53.5559 15.2354C53.5559 13.1006 51.8162 11.3662 49.6721 11.3662C47.5281 11.3662 45.7914 13.1006 45.7914 15.2354ZM15.8037 32.4492C15.8037 41.5947 23.2384 49.0088 32.4097 49.0088C41.5809 49.0088 49.0156 41.5947 49.0156 32.4492C49.0156 23.3037 41.5809 15.8945 32.4097 15.8945C23.2384 15.8945 15.8037 23.3037 15.8037 32.4492ZM21.6311 32.4492C21.6311 26.5156 26.4561 21.7012 32.4097 21.7012C38.3632 21.7012 43.1881 26.5156 43.1881 32.4492C43.1881 38.3857 38.3632 43.2012 32.4097 43.2012C26.4561 43.2012 21.6311 38.3857 21.6311 32.4492Z"
            fill-opacity="1.000000" fill-rule="evenodd" />
    </symbol>

    <symbol  viewBox="0 0 65 64.9766" id='facebook-icon'>
	    <path d="M0 12.9951C0 5.81836 5.82031 0 13 0L52 0C59.1796 0 65 5.81836 65 12.9951L65 51.9814C65 59.1582 59.1796 64.9766 52 64.9766L13 64.9766C5.82031 64.9766 0 59.1582 0 51.9814L0 12.9951ZM13 6.49805C9.41016 6.49805 6.5 9.40625 6.5 12.9951L6.5 51.9814C6.5 55.5693 9.41016 58.4785 13 58.4785L32.5 58.4785L32.5 35.7373L29.25 35.7373C27.4551 35.7373 26 34.2822 26 32.4883C26 30.6943 27.4551 29.2393 29.25 29.2393L32.5 29.2393L32.5 24.3662C32.5 18.0859 37.5928 12.9951 43.875 12.9951L45.825 12.9951C47.62 12.9951 49.075 14.4502 49.075 16.2441C49.075 18.0381 47.62 19.4932 45.825 19.4932L43.875 19.4932C41.1827 19.4932 39 21.6748 39 24.3662L39 29.2393L45.825 29.2393C47.62 29.2393 49.075 30.6943 49.075 32.4883C49.075 34.2822 47.62 35.7373 45.825 35.7373L39 35.7373L39 58.4785L52 58.4785C55.59 58.4785 58.5 55.5693 58.5 51.9814L58.5 12.9951C58.5 9.40625 55.59 6.49805 52 6.49805L13 6.49805Z" fill-opacity="1.000000" fill-rule="evenodd"/>
    </symbol>

    <symbol width="33" height="18" viewBox="0 0 33 18" id='burger-icon'>
        <line x1='0' y1='2' x2='33' y2='2' stroke='#000' stroke-width='3'/>
        <line x1='0' y1='9' x2='33' y2='9' stroke='#000' stroke-width='3'/>
        <line x1='0' y1='16' x2='33' y2='16' stroke='#000' stroke-width='3'/>
    </symbol>
    
    <symbol width="25" height="22" viewBox="0 0 25 22" id='cross-icon'>
        <line x1='0' y1='0' x2='25' y2='22' stroke='#000' stroke-width='3'/>
        <line x1='0' y1='22' x2='25' y2='0' stroke='#000' stroke-width='3'/>
    </symbol>

</svg>